<?xml version="1.0" encoding="UTF-8" standalone="no"?>
<svg
   xmlns:dc="http://purl.org/dc/elements/1.1/"
   xmlns:cc="http://creativecommons.org/ns#"
   xmlns:rdf="http://www.w3.org/1999/02/22-rdf-syntax-ns#"
   xmlns:svg="http://www.w3.org/2000/svg"
   xmlns="http://www.w3.org/2000/svg"
   xmlns:sodipodi="http://sodipodi.sourceforge.net/DTD/sodipodi-0.dtd"
   xmlns:inkscape="http://www.inkscape.org/namespaces/inkscape"
   version="1.1"
   id="Layer_1"
   x="0px"
   y="0px"
   viewBox="0 0 777.7 250"
   style="enable-background:new 0 0 777.7 250;"
   xml:space="preserve"
   sodipodi:docname="magma-logo-purple.svg"
   inkscape:version="1.0.2 (e86c8708, 2021-01-15)"><metadata
   id="metadata134"><rdf:RDF><cc:Work
       rdf:about=""><dc:format>image/svg+xml</dc:format><dc:type
         rdf:resource="http://purl.org/dc/dcmitype/StillImage" /></cc:Work></rdf:RDF></metadata><defs
   id="defs132" /><sodipodi:namedview
   pagecolor="#ffffff"
   bordercolor="#666666"
   borderopacity="1"
   objecttolerance="10"
   gridtolerance="10"
   guidetolerance="10"
   inkscape:pageopacity="0"
   inkscape:pageshadow="2"
   inkscape:window-width="1680"
   inkscape:window-height="997"
   id="namedview130"
   showgrid="false"
   inkscape:zoom="1.9609104"
   inkscape:cx="290.68131"
   inkscape:cy="125"
   inkscape:window-x="0"
   inkscape:window-y="25"
   inkscape:window-maximized="0"
   inkscape:current-layer="Layer_1" />
<style
   type="text/css"
   id="style91">
	.st0{fill:#FFFFFF;}
</style>
<g
   id="g115"
   style="fill:#5f00ad;fill-opacity:1">
	<path
   class="st0"
   d="M29.1,201.9c1.9,2.4,3.9,4.7,5.9,6.9C33,206.6,31,204.3,29.1,201.9z"
   id="path93"
   style="fill:#5f00ad;fill-opacity:1" />
	<path
   class="st0"
   d="M25.2,196.7c-0.7-1-1.3-1.9-2-2.9C23.8,194.8,24.5,195.8,25.2,196.7z"
   id="path95"
   style="fill:#5f00ad;fill-opacity:1" />
	<path
   class="st0"
   d="M17.3,184c1.5,1.8,3.5,2,6.2,1.1c7.2-2.6,11.2-8,11.2-16c0-23.7,0-47.3,0-71c0-8,2.3-15.4,6.7-22.1   C52.5,58.9,74,54,92.2,61.3c11,4.4,18.8,12.7,22.4,24.5c1.7,5.7,2.3,11.4,2.3,17.2c0,19.8-0.2,39.6-0.1,59.5   c0,7.7,5.2,12.2,11.6,10.4c3.9-1,6.8-5.5,6.7-11.1c-0.1-12.2-0.5-24.3-0.5-36.5c0-10.2,1.1-20.3,7.4-29   c10.1-14,24.1-19.1,40.6-16.4c14.5,2.3,24.7,10.7,30.2,24.5c2.2,5.5,3.2,11.2,3.3,17c0.1,16.2,0,32.3,0,48.5   c0,6.7,2.8,11.4,8.7,14.5c3,1.5,5.4,1.5,7.2-0.7c-0.6,1.1-1.2,2.2-1.9,3.3c10.4-18,16.4-38.8,16.4-61.1c0-67.4-54.6-122-122-122   S2.6,58.6,2.6,126c0,22.3,6,43.1,16.4,61.1C18.4,186.1,17.8,185.1,17.3,184z"
   id="path97"
   style="fill:#5f00ad;fill-opacity:1" />
	<path
   class="st0"
   d="M219.7,202.5c-2.4,3-5,5.9-7.6,8.6C214.7,208.4,217.3,205.5,219.7,202.5z"
   id="path99"
   style="fill:#5f00ad;fill-opacity:1" />
	<path
   class="st0"
   d="M224.1,196.7c0.3-1.2-0.5-1.9-2.4-2.6c-12.4-4.3-16.4-14.1-16.7-26.1c-0.4-16.7,0.8-33.3,0-50   c-0.6-13.5-9.4-23.6-24.1-27.4c-10.5-2.8-25,3.5-31,13.6c-3.7,6.2-4.9,13-4.9,20.1c0,14,0.3,28,0,42c-0.2,9.8-8.4,17.4-18.2,17.6   c-12.2,0.3-20.3-7-20.5-19.3c-0.3-14.8,0.1-29.6,0.1-44.5c0-7.7,0.3-15.4-0.5-23c-1.2-12.9-8-22.6-20.5-26.2   c-12.3-3.6-24.2-1.7-33.2,8.9c-5.9,6.8-7.6,15.1-7.6,23.7c-0.1,21.8,0.2,43.6,0.3,65.5c0.1,12.8-4.9,21.8-17.7,25.6   c-1.2,0.4-2.3,0.6-2.2,2.2v0.1c1.3,1.8,2.6,3.5,3.9,5.2c2.3,1.4,5,2,7.1,1.2c13-5.5,19.7-15.5,20.2-29.4c0.4-12.3,0.1-24.6,0.1-37   c0,0,0,0,0.1,0c0-12.2-0.1-24.3,0-36.5c0.3-12,8.6-20.4,19.7-20.3c10.8,0.1,18.8,8.6,18.8,20.3c0,14.8-0.3,29.7-0.1,44.5   c0.1,9.9-1.1,19.9,2,29.8c3.5,11.1,13.1,19,24.6,20.3c15.5,1.8,27.3-6.6,31.4-15.5c4.7-10.2,4.2-21.1,4-31.9   c-0.2-10.2-1-20.3,0.1-30.4c0.8-7,6.5-13.6,13.2-15.4c7.6-2,15.9,0.6,20.2,6.4c3.6,4.7,4.7,10.2,4.7,15.9   c-0.1,14.7-0.4,29.3-0.5,44c-0.1,13.5,3.5,25.3,16,32.8c5.2,3.1,6.8,3.9,9.2,1.6c2.3-2.8,4.4-5.7,6.4-8.7   C225.4,194.8,224.7,195.8,224.1,196.7z"
   id="path101"
   style="fill:#5f00ad;fill-opacity:1" />
	<path
   class="st0"
   d="M226.5,193.2c0.5-0.8,1.1-1.6,1.6-2.5C227.5,191.6,227,192.4,226.5,193.2z"
   id="path103"
   style="fill:#5f00ad;fill-opacity:1" />
	<path
   class="st0"
   d="M209,214.1c0.5-1-0.1-1.9-2-3c-6.7-3.8-12.5-8.8-16.6-15.5c-4.6-7.5-6.2-15.8-6.4-24.3   c-0.3-15.8,0-31.6,0-47.5c0-2-0.1-4-0.6-5.9c-0.8-3.7-3.6-5.7-7-6.3c-3.4-0.6-5.9,1.5-7.8,4.2c-1.7,2.5-1.8,5.3-1.8,8.1   c0,13.8,0.3,27.6,0,41.5c-0.5,22-15,37.5-36.8,39.9c-23.9,2.6-43.5-14-45.2-37.9c-0.8-11.7-0.2-23.3,0.1-34.9c0-9.7-0.1-19.3,0-29   c0-3.1-0.7-5.9-2.1-8.6c-1.5-3.1-4.3-4.4-7.3-4.3c-3.3,0.1-6.1,1.9-7.2,5.3c-0.6,2-1.1,4.2-1,6.4c0.1,15.5,0.2,31,0.4,46.5   c0.1,9.3,0.2,18.6-0.8,27.9c-1.7,16.2-9.6,28-24.3,35.1c-2.5,1.2-2.2,2.3-1.2,3.5c21.8,20.3,51,32.7,83.1,32.7   c34.1,0,64.9-14,87-36.5C210.8,212.4,209.9,213.3,209,214.1z"
   id="path105"
   style="fill:#5f00ad;fill-opacity:1" />
	<path
   class="st0"
   d="M230.2,187.2c-0.6,1-1.2,2-1.8,2.9C229.1,189.1,229.6,188.2,230.2,187.2z"
   id="path107"
   style="fill:#5f00ad;fill-opacity:1" />
	<path
   class="st0"
   d="M35.1,208.9c2.1,2.2,4.2,4.4,6.4,6.4C39.3,213.2,37.1,211.1,35.1,208.9z"
   id="path109"
   style="fill:#5f00ad;fill-opacity:1" />
	<path
   class="st0"
   d="M20.8,190.1c-0.5-0.8-0.9-1.6-1.4-2.3C19.8,188.5,20.3,189.3,20.8,190.1z"
   id="path111"
   style="fill:#5f00ad;fill-opacity:1" />
	<path
   class="st0"
   d="M21.3,190.9c0.5,0.8,1,1.5,1.5,2.3C22.3,192.4,21.8,191.7,21.3,190.9z"
   id="path113"
   style="fill:#5f00ad;fill-opacity:1" />
</g>
<g
   id="g127"
   style="fill:#5f00ad;fill-opacity:1">
	<path
   class="st0"
   d="M280.5,108.2c0-6.6,0-13.2-0.1-19.8h20.3c0.3,1.9,0.7,6.2,0.8,9.1c3.9-5.7,10.1-10.9,21.3-10.9   c11,0,17.1,5.7,19.8,11.7c4.5-6.3,11.1-11.7,23.6-11.7c13.4,0,24.3,8.2,24.3,28.2v50.3h-20.7v-47.8c0-6.9-2.5-13.7-11.2-13.7   c-9,0-12.6,5.8-12.6,17.6v43.9h-20.8v-47c0-8-2-14.4-11-14.4c-8.6,0-12.7,5.3-12.7,18.5v42.9h-21V108.2z"
   id="path117"
   style="fill:#5f00ad;fill-opacity:1" />
	<path
   class="st0"
   d="M472.4,145.3c0,7.3,0.6,18,1,19.8h-20.3c-0.6-1.5-1-5.6-1.1-7.5c-2.8,4.3-8,9.3-21.6,9.3   c-18.5,0-26.3-12.2-26.3-24.1c0-17.5,14-25.5,36.5-25.5c3.7,0,8.4,0,11,0v-4.7c0-5.5-2-10.8-11.8-10.8c-9,0-10.9,3.8-11.9,9.4   h-20.2c1.2-13.6,9.6-24.7,32.9-24.5c20.6,0.1,31.7,8.2,31.7,26.4V145.3z M451.7,130.2c-1.8,0-5.9,0-8.7,0   c-12.8,0-17.5,3.9-17.5,11.3c0,5.6,3.4,10.2,11,10.2c13.5,0,15.2-9.4,15.2-19.5V130.2z"
   id="path119"
   style="fill:#5f00ad;fill-opacity:1" />
	<path
   class="st0"
   d="M561.5,155.8c0,24.6-9.1,40.2-38.2,40.2c-28,0-33.5-15.7-34.3-24.3h21.7c1.5,5.3,5.4,8.9,13.6,8.9   c13.8,0,16.4-8.4,16.4-23.5v-3.7c-4,6.6-10.4,10.8-21.6,10.8c-20.2,0-31.7-16.6-31.7-37.2c0-24,14.4-40.4,33.6-40.4   c13.2,0,18.6,6.2,19.8,9.8c0.1-2.1,0.7-6.7,0.8-8h20.1c-0.1,6.8-0.2,14.6-0.2,22V155.8z M509.1,126.1c0,13.2,6.6,21,16,21   c12.8,0,16.2-8.8,16.2-21.7c0-12.9-2.3-21.8-15.8-21.8C516.3,103.7,509.1,110.8,509.1,126.1z"
   id="path121"
   style="fill:#5f00ad;fill-opacity:1" />
	<path
   class="st0"
   d="M580.3,108.2c0-6.6,0-13.2-0.1-19.8h20.3c0.3,1.9,0.7,6.2,0.8,9.1c3.9-5.7,10.1-10.9,21.3-10.9   c11,0,17.1,5.7,19.8,11.7c4.5-6.3,11.1-11.7,23.6-11.7c13.4,0,24.3,8.2,24.3,28.2v50.3h-20.7v-47.8c0-6.9-2.5-13.7-11.2-13.7   c-9,0-12.6,5.8-12.6,17.6v43.9H625v-47c0-8-2-14.4-11-14.4c-8.6,0-12.7,5.3-12.7,18.5v42.9h-21V108.2z"
   id="path123"
   style="fill:#5f00ad;fill-opacity:1" />
	<path
   class="st0"
   d="M772.2,145.3c0,7.3,0.6,18,1,19.8h-20.3c-0.6-1.5-1-5.6-1.1-7.5c-2.8,4.3-8,9.3-21.6,9.3   c-18.5,0-26.3-12.2-26.3-24.1c0-17.5,14-25.5,36.5-25.5c3.7,0,8.4,0,11,0v-4.7c0-5.5-2-10.8-11.8-10.8c-9,0-10.9,3.8-11.9,9.4   h-20.2c1.2-13.6,9.6-24.7,32.9-24.5c20.6,0.1,31.7,8.2,31.7,26.4V145.3z M751.5,130.2c-1.8,0-5.9,0-8.7,0   c-12.8,0-17.5,3.9-17.5,11.3c0,5.6,3.4,10.2,11,10.2c13.5,0,15.2-9.4,15.2-19.5V130.2z"
   id="path125"
   style="fill:#5f00ad;fill-opacity:1" />
</g>
</svg>
