<svg xmlns="http://www.w3.org/2000/svg" version="1.1" id="Layer_1" x="0" y="0" viewBox="0 0 777.7 250" xml:space="preserve"><style type="text/css" id="style91">.st0{fill:#fff}</style><g id="g115" fill="#5f00ad" fill-opacity="1"><path class="st0" d="M29.1 201.9c1.9 2.4 3.9 4.7 5.9 6.9-2-2.2-4-4.5-5.9-6.9z" id="path93" fill="#5f00ad" fill-opacity="1"/><path class="st0" d="M25.2 196.7c-.7-1-1.3-1.9-2-2.9.6 1 1.3 2 2 2.9z" id="path95" fill="#5f00ad" fill-opacity="1"/><path class="st0" d="M17.3 184c1.5 1.8 3.5 2 6.2 1.1 7.2-2.6 11.2-8 11.2-16v-71c0-8 2.3-15.4 6.7-22.1C52.5 58.9 74 54 92.2 61.3c11 4.4 18.8 12.7 22.4 24.5 1.7 5.7 2.3 11.4 2.3 17.2 0 19.8-.2 39.6-.1 59.5 0 7.7 5.2 12.2 11.6 10.4 3.9-1 6.8-5.5 6.7-11.1-.1-12.2-.5-24.3-.5-36.5 0-10.2 1.1-20.3 7.4-29 10.1-14 24.1-19.1 40.6-16.4 14.5 2.3 24.7 10.7 30.2 24.5 2.2 5.5 3.2 11.2 3.3 17 .1 16.2 0 32.3 0 48.5 0 6.7 2.8 11.4 8.7 14.5 3 1.5 5.4 1.5 7.2-.7-.6 1.1-1.2 2.2-1.9 3.3 10.4-18 16.4-38.8 16.4-61.1 0-67.4-54.6-122-122-122S2.6 58.6 2.6 126c0 22.3 6 43.1 16.4 61.1-.6-1-1.2-2-1.7-3.1z" id="path97" fill="#5f00ad" fill-opacity="1"/><path class="st0" d="M219.7 202.5c-2.4 3-5 5.9-7.6 8.6 2.6-2.7 5.2-5.6 7.6-8.6z" id="path99" fill="#5f00ad" fill-opacity="1"/><path class="st0" d="M224.1 196.7c.3-1.2-.5-1.9-2.4-2.6-12.4-4.3-16.4-14.1-16.7-26.1-.4-16.7.8-33.3 0-50-.6-13.5-9.4-23.6-24.1-27.4-10.5-2.8-25 3.5-31 13.6-3.7 6.2-4.9 13-4.9 20.1 0 14 .3 28 0 42-.2 9.8-8.4 17.4-18.2 17.6-12.2.3-20.3-7-20.5-19.3-.3-14.8.1-29.6.1-44.5 0-7.7.3-15.4-.5-23-1.2-12.9-8-22.6-20.5-26.2-12.3-3.6-24.2-1.7-33.2 8.9-5.9 6.8-7.6 15.1-7.6 23.7-.1 21.8.2 43.6.3 65.5.1 12.8-4.9 21.8-17.7 25.6-1.2.4-2.3.6-2.2 2.2v.1c1.3 1.8 2.6 3.5 3.9 5.2 2.3 1.4 5 2 7.1 1.2 13-5.5 19.7-15.5 20.2-29.4.4-12.3.1-24.6.1-37h.1c0-12.2-.1-24.3 0-36.5.3-12 8.6-20.4 19.7-20.3 10.8.1 18.8 8.6 18.8 20.3 0 14.8-.3 29.7-.1 44.5.1 9.9-1.1 19.9 2 29.8 3.5 11.1 13.1 19 24.6 20.3 15.5 1.8 27.3-6.6 31.4-15.5 4.7-10.2 4.2-21.1 4-31.9-.2-10.2-1-20.3.1-30.4.8-7 6.5-13.6 13.2-15.4 7.6-2 15.9.6 20.2 6.4 3.6 4.7 4.7 10.2 4.7 15.9-.1 14.7-.4 29.3-.5 44-.1 13.5 3.5 25.3 16 32.8 5.2 3.1 6.8 3.9 9.2 1.6 2.3-2.8 4.4-5.7 6.4-8.7-.7 1-1.4 2-2 2.9z" id="path101" fill="#5f00ad" fill-opacity="1"/><path class="st0" d="M226.5 193.2c.5-.8 1.1-1.6 1.6-2.5-.6.9-1.1 1.7-1.6 2.5z" id="path103" fill="#5f00ad" fill-opacity="1"/><path class="st0" d="M209 214.1c.5-1-.1-1.9-2-3-6.7-3.8-12.5-8.8-16.6-15.5-4.6-7.5-6.2-15.8-6.4-24.3-.3-15.8 0-31.6 0-47.5 0-2-.1-4-.6-5.9-.8-3.7-3.6-5.7-7-6.3-3.4-.6-5.9 1.5-7.8 4.2-1.7 2.5-1.8 5.3-1.8 8.1 0 13.8.3 27.6 0 41.5-.5 22-15 37.5-36.8 39.9-23.9 2.6-43.5-14-45.2-37.9-.8-11.7-.2-23.3.1-34.9 0-9.7-.1-19.3 0-29 0-3.1-.7-5.9-2.1-8.6-1.5-3.1-4.3-4.4-7.3-4.3-3.3.1-6.1 1.9-7.2 5.3-.6 2-1.1 4.2-1 6.4.1 15.5.2 31 .4 46.5.1 9.3.2 18.6-.8 27.9-1.7 16.2-9.6 28-24.3 35.1-2.5 1.2-2.2 2.3-1.2 3.5 21.8 20.3 51 32.7 83.1 32.7 34.1 0 64.9-14 87-36.5-.7.9-1.6 1.8-2.5 2.6z" id="path105" fill="#5f00ad" fill-opacity="1"/><path class="st0" d="M230.2 187.2c-.6 1-1.2 2-1.8 2.9.7-1 1.2-1.9 1.8-2.9z" id="path107" fill="#5f00ad" fill-opacity="1"/><path class="st0" d="M35.1 208.9c2.1 2.2 4.2 4.4 6.4 6.4-2.2-2.1-4.4-4.2-6.4-6.4z" id="path109" fill="#5f00ad" fill-opacity="1"/><path class="st0" d="M20.8 190.1c-.5-.8-.9-1.6-1.4-2.3.4.7.9 1.5 1.4 2.3z" id="path111" fill="#5f00ad" fill-opacity="1"/><path class="st0" d="M21.3 190.9c.5.8 1 1.5 1.5 2.3-.5-.8-1-1.5-1.5-2.3z" id="path113" fill="#5f00ad" fill-opacity="1"/></g><g id="g127" fill="#5f00ad" fill-opacity="1"><path class="st0" d="M280.5 108.2c0-6.6 0-13.2-.1-19.8h20.3c.3 1.9.7 6.2.8 9.1 3.9-5.7 10.1-10.9 21.3-10.9 11 0 17.1 5.7 19.8 11.7 4.5-6.3 11.1-11.7 23.6-11.7 13.4 0 24.3 8.2 24.3 28.2v50.3h-20.7v-47.8c0-6.9-2.5-13.7-11.2-13.7-9 0-12.6 5.8-12.6 17.6v43.9h-20.8v-47c0-8-2-14.4-11-14.4-8.6 0-12.7 5.3-12.7 18.5v42.9h-21v-56.9z" id="path117" fill="#5f00ad" fill-opacity="1"/><path class="st0" d="M472.4 145.3c0 7.3.6 18 1 19.8h-20.3c-.6-1.5-1-5.6-1.1-7.5-2.8 4.3-8 9.3-21.6 9.3-18.5 0-26.3-12.2-26.3-24.1 0-17.5 14-25.5 36.5-25.5h11v-4.7c0-5.5-2-10.8-11.8-10.8-9 0-10.9 3.8-11.9 9.4h-20.2c1.2-13.6 9.6-24.7 32.9-24.5 20.6.1 31.7 8.2 31.7 26.4v32.2zm-20.7-15.1H443c-12.8 0-17.5 3.9-17.5 11.3 0 5.6 3.4 10.2 11 10.2 13.5 0 15.2-9.4 15.2-19.5v-2z" id="path119" fill="#5f00ad" fill-opacity="1"/><path class="st0" d="M561.5 155.8c0 24.6-9.1 40.2-38.2 40.2-28 0-33.5-15.7-34.3-24.3h21.7c1.5 5.3 5.4 8.9 13.6 8.9 13.8 0 16.4-8.4 16.4-23.5v-3.7c-4 6.6-10.4 10.8-21.6 10.8-20.2 0-31.7-16.6-31.7-37.2 0-24 14.4-40.4 33.6-40.4 13.2 0 18.6 6.2 19.8 9.8.1-2.1.7-6.7.8-8h20.1c-.1 6.8-.2 14.6-.2 22v45.4zm-52.4-29.7c0 13.2 6.6 21 16 21 12.8 0 16.2-8.8 16.2-21.7 0-12.9-2.3-21.8-15.8-21.8-9.2.1-16.4 7.2-16.4 22.5z" id="path121" fill="#5f00ad" fill-opacity="1"/><path class="st0" d="M580.3 108.2c0-6.6 0-13.2-.1-19.8h20.3c.3 1.9.7 6.2.8 9.1 3.9-5.7 10.1-10.9 21.3-10.9 11 0 17.1 5.7 19.8 11.7 4.5-6.3 11.1-11.7 23.6-11.7 13.4 0 24.3 8.2 24.3 28.2v50.3h-20.7v-47.8c0-6.9-2.5-13.7-11.2-13.7-9 0-12.6 5.8-12.6 17.6v43.9H625v-47c0-8-2-14.4-11-14.4-8.6 0-12.7 5.3-12.7 18.5v42.9h-21v-56.9z" id="path123" fill="#5f00ad" fill-opacity="1"/><path class="st0" d="M772.2 145.3c0 7.3.6 18 1 19.8h-20.3c-.6-1.5-1-5.6-1.1-7.5-2.8 4.3-8 9.3-21.6 9.3-18.5 0-26.3-12.2-26.3-24.1 0-17.5 14-25.5 36.5-25.5h11v-4.7c0-5.5-2-10.8-11.8-10.8-9 0-10.9 3.8-11.9 9.4h-20.2c1.2-13.6 9.6-24.7 32.9-24.5 20.6.1 31.7 8.2 31.7 26.4v32.2zm-20.7-15.1h-8.7c-12.8 0-17.5 3.9-17.5 11.3 0 5.6 3.4 10.2 11 10.2 13.5 0 15.2-9.4 15.2-19.5v-2z" id="path125" fill="#5f00ad" fill-opacity="1"/></g></svg>